<?xml version="1.0" encoding="UTF-8" standalone="no"?>
<svg
   fill-rule="evenodd"
   viewBox="0 0 1200 1200"
   version="1.1"
   id="svg2"
   sodipodi:docname="logo-final.svg"
   xml:space="preserve"
   inkscape:version="1.4 (86a8ad7, 2024-10-11)"
   width="1200"
   height="1200"
   xmlns:inkscape="http://www.inkscape.org/namespaces/inkscape"
   xmlns:sodipodi="http://sodipodi.sourceforge.net/DTD/sodipodi-0.dtd"
   xmlns:xlink="http://www.w3.org/1999/xlink"
   xmlns="http://www.w3.org/2000/svg"
   xmlns:svg="http://www.w3.org/2000/svg"><defs
     id="defs2"><linearGradient
       id="linearGradient8"
       inkscape:collect="always"><stop
         style="stop-color:#5098e4;stop-opacity:1;"
         offset="0"
         id="stop8" /><stop
         style="stop-color:#007bff;stop-opacity:1;"
         offset="1"
         id="stop9" /></linearGradient><filter
       style="color-interpolation-filters:sRGB"
       inkscape:label="Drop Shadow"
       id="filter12"
       x="-0.20092484"
       y="-0.2"
       width="1.4018497"
       height="1.4"><feFlood
         result="flood"
         in="SourceGraphic"
         flood-opacity="1.000000"
         flood-color="rgb(0,0,0)"
         id="feFlood11" /><feGaussianBlur
         result="blur"
         in="SourceGraphic"
         stdDeviation="100.000000"
         id="feGaussianBlur11" /><feOffset
         result="offset"
         in="blur"
         dx="0.000000"
         dy="0.000000"
         id="feOffset11" /><feComposite
         result="comp1"
         operator="out"
         in="flood"
         in2="offset"
         id="feComposite11" /><feComposite
         result="comp2"
         operator="atop"
         in="comp1"
         in2="SourceGraphic"
         id="feComposite12" /></filter><filter
       style="color-interpolation-filters:sRGB"
       inkscape:label="Drop Shadow"
       id="filter12-1"
       x="-0.20092484"
       y="-0.2"
       width="1.4018497"
       height="1.4"><feFlood
         result="flood"
         in="SourceGraphic"
         flood-opacity="1.000000"
         flood-color="rgb(0,0,0)"
         id="feFlood11-8" /><feGaussianBlur
         result="blur"
         in="SourceGraphic"
         stdDeviation="100.000000"
         id="feGaussianBlur11-9" /><feOffset
         result="offset"
         in="blur"
         dx="0.000000"
         dy="0.000000"
         id="feOffset11-2" /><feComposite
         result="comp1"
         operator="out"
         in="flood"
         in2="offset"
         id="feComposite11-7" /><feComposite
         result="comp2"
         operator="atop"
         in="comp1"
         in2="SourceGraphic"
         id="feComposite12-9" /></filter><filter
       style="color-interpolation-filters:sRGB"
       inkscape:label="Drop Shadow"
       id="filter18"
       x="-0.10046241"
       y="-0.1"
       width="1.2009248"
       height="1.2"><feFlood
         result="flood"
         in="SourceGraphic"
         flood-opacity="1.000000"
         flood-color="rgb(0,0,0)"
         id="feFlood17" /><feGaussianBlur
         result="blur"
         in="SourceGraphic"
         stdDeviation="50.000000"
         id="feGaussianBlur17" /><feOffset
         result="offset"
         in="blur"
         dx="0.000000"
         dy="0.000000"
         id="feOffset17" /><feComposite
         result="comp1"
         operator="out"
         in="flood"
         in2="offset"
         id="feComposite17" /><feComposite
         result="comp2"
         operator="atop"
         in="comp1"
         in2="SourceGraphic"
         id="feComposite18" /></filter><filter
       style="color-interpolation-filters:sRGB"
       inkscape:label="Drop Shadow"
       id="filter18-0"
       x="-0.10046241"
       y="-0.1"
       width="1.2009248"
       height="1.2"><feFlood
         result="flood"
         in="SourceGraphic"
         flood-opacity="1.000000"
         flood-color="rgb(0,0,0)"
         id="feFlood17-9" /><feGaussianBlur
         result="blur"
         in="SourceGraphic"
         stdDeviation="50.000000"
         id="feGaussianBlur17-4" /><feOffset
         result="offset"
         in="blur"
         dx="0.000000"
         dy="0.000000"
         id="feOffset17-8" /><feComposite
         result="comp1"
         operator="out"
         in="flood"
         in2="offset"
         id="feComposite17-8" /><feComposite
         result="comp2"
         operator="atop"
         in="comp1"
         in2="SourceGraphic"
         id="feComposite18-2" /></filter><radialGradient
       inkscape:collect="always"
       xlink:href="#linearGradient8"
       id="radialGradient9"
       cx="41.450249"
       cy="3540.5405"
       fx="41.450249"
       fy="3540.5405"
       r="600"
       gradientUnits="userSpaceOnUse"
       gradientTransform="matrix(2,0,1.1454508e-7,2.6706035,-82.9009,-8855.38)" /></defs><sodipodi:namedview
     id="namedview2"
     pagecolor="#505050"
     bordercolor="#eeeeee"
     borderopacity="1"
     inkscape:showpageshadow="0"
     inkscape:pageopacity="0"
     inkscape:pagecheckerboard="0"
     inkscape:deskcolor="#d1d1d1"
     inkscape:zoom="0.29330709"
     inkscape:cx="1241.0201"
     inkscape:cy="543.79866"
     inkscape:window-width="2400"
     inkscape:window-height="1261"
     inkscape:window-x="2391"
     inkscape:window-y="-9"
     inkscape:window-maximized="1"
     inkscape:current-layer="svg2" /><circle
     style="fill:url(#radialGradient9);stroke-width:2.06263;stroke-linecap:square;stroke-linejoin:round;paint-order:markers stroke fill"
     id="path5"
     cx="600"
     cy="600"
     r="600"
     inkscape:export-filename="logo-final.svg"
     inkscape:export-xdpi="200"
     inkscape:export-ydpi="200" /><path
     d="m 128.1235,599.9817 v -41.3333 h 7.2923 7.2923 l 0.3744,16.3333 0.3744,16.3333 31,0.2815 31,0.2815 v -16.6148 -16.6148 h 8 8 v 41.3333 41.3333 h -8 -8 v -17.9548 -17.9549 l -14.2188,-0.3785 c -7.8203,-0.2081 -21.9203,-0.1951 -31.3333,0.029 l -17.1146,0.4075 v 17.9259 17.9258 h -7.3333 -7.3334 z m 140,39.6285 c -7.0233,-3.5093 -7.9956,-8.2918 -7.9979,-39.338 0,-30.4832 0.8215,-35.2478 6.8204,-39.4496 2.6925,-1.8859 8.1134,-2.1742 40.8737,-2.1742 41.8607,0 44.1191,0.3935 46.8259,8.1584 0.9075,2.6031 1.4779,15.5014 1.4779,33.4167 0,33.136 -0.796,37.0471 -8.0555,39.5778 -6.3282,2.206 -75.4778,2.0407 -79.9445,-0.1911 z m 73.0265,-39.9571 -0.3598,-28.3286 h -32.3333 -32.3333 v 28.3334 l -1e-4,28.3333 h 32.6932 32.6932 z m 54.9735,0.3286 v -41.3333 h 6.3518 6.3517 l 19.1769,25.9305 19.1769,25.9304 3.5285,-4.9304 c 1.9406,-2.7118 10.078,-14.3805 18.083,-25.9305 l 14.5546,-21 h 7.055 7.055 v 41.3333 41.3333 h -7.3083 -7.3084 l -0.3583,-30.0921 -0.3584,-30.0922 -16.3852,24.0922 c -9.0118,13.2507 -17.2773,24.0921 -18.3678,24.0921 -1.5611,0 -22.8062,-27.1838 -35.6297,-45.5893 -1.998,-2.8677 -2.1488,-1.011 -2.214,27.256 l -0.07,30.3333 h -6.6667 -6.6666 z m 141.93756,39.6513 c -0.355,-0.9251 -0.4861,-19.3751 -0.2915,-41 l 0.354,-39.318 7.6667,-0.3998 7.6666,-0.3999 v 41.3999 41.3998 h -7.3751 c -4.7062,0 -7.6088,-0.6087 -8.0207,-1.682 z m 55.3958,-39.6513 v -41.3333 h 40.0731 40.0731 l -0.4064,6.2716 -0.4064,6.2717 -31.6667,0.061 -31.6667,0.061 v 12.3339 12.3341 h 18 18 v 6.6667 6.6666 h -18 -18 v 16 16 h -8 -8 z m 126.6525,23.6667 -0.014,-17.6667 -20.6524,-22.9088 c -11.3588,-12.5998 -20.6524,-23.2498 -20.6524,-23.6666 0,-0.4169 4.1533,-0.7579 9.2296,-0.7579 h 9.2296 l 14.9757,17.3333 c 8.2366,9.5333 15.3332,17.3024 15.7704,17.2647 0.4371,-0.038 7.2762,-7.8378 15.198,-17.3333 l 14.4033,-17.2647 h 9.4267 c 8.7478,0 9.2948,0.1658 7.5967,2.3029 -1.0065,1.2666 -10.3799,11.8177 -20.8299,23.4467 l -19,21.1439 v 17.8866 17.8865 h -7.3334 -7.3333 z m 144.6158,16.159 c -4.0897,-1.9868 -5.6726,-5.3438 -6.6678,-14.1407 -1.011,-8.9359 -1.0885,-8.8486 9.2291,-10.3958 l 6.1704,-0.9253 v 6.8181 6.818 h 25.1907 c 28.4944,0 26.8093,0.7123 26.8093,-11.3333 0,-11.7516 0.6941,-11.3334 -18.8093,-11.3334 h -17.1907 v -6.6666 -6.6667 h 15.3664 15.3663 l 1.3724,-3.6098 c 1.6272,-4.2797 0.4114,-15.235 -1.8503,-16.673 -0.8735,-0.5553 -11.6381,-1.0189 -23.9214,-1.0301 l -22.3334,-0.02 v 5.7778 c 0,3.1777 -0.3114,6.0891 -0.692,6.4698 -0.3806,0.3806 -3.7554,0.086 -7.4995,-0.654 l -6.8075,-1.346 0.7234,-7.9773 c 1.2449,-13.7297 0.7065,-13.533 38.3451,-14.0046 l 32.0005,-0.4009 3.965,3.965 c 3.7473,3.7473 3.965,4.5601 3.965,14.8005 0,11.415 -2.0109,17.6544 -6.2091,19.2654 -1.9329,0.7417 -1.6106,1.3096 1.9839,3.4956 5.5956,3.4029 6.8919,7.1824 6.8919,20.095 0,12.5719 -2.0744,17.5815 -8.1585,19.7025 -5.3671,1.871 -63.3803,1.8453 -67.2399,-0.03 z m 112.7317,-39.8076 v -41.5204 l 33.00004,0.4178 33,0.4178 7.7569,3.8089 c 18.6747,9.1699 26.1442,34.939 16.337,56.3608 -3.9262,8.5758 -9.712,14.4603 -17.9287,18.2345 -5.6467,2.5937 -8.9402,2.8726 -39.1652,3.3164 l -33.00004,0.4846 z m 66.55514,23.9508 c 7.1853,-4.0295 10.7749,-10.4496 11.7187,-20.9589 1.3492,-15.023 -4.0981,-25.1873 -15.5342,-28.9858 -6.1562,-2.0447 -39.7885,-3.7557 -45.61924,-2.3207 -1.9777,0.4867 -2.204,3.5238 -2.1279,28.5673 l 0.085,28.0227 22.79454,-0.5112 c 21.2809,-0.4773 23.1856,-0.7305 28.6829,-3.8134 z"
     style="fill:#ffffff;fill-opacity:1"
     id="path1-4-2-3-5" /><path
     style="fill:#ffffff"
     d="M 298.9209,366.7253 59.3115,504.7468 v 197.836 L 1135.6592,695.0827 74.3115,687.5828 v -174.166 l 1066.377,-4.334 -607.89651,-7.4999 z"
     id="path6"
     sodipodi:nodetypes="ccccccccc" /></svg>
